# xmcd CD database file
#
# Track frame offsets:
#	150
#	25203
#	59107
#	83110
#	107968
#	141060
#
# Disc length: 2195 seconds
#
# Revision: 1
# Processed by: cddbd v1.5.1PL2 Copyright (c) Steve Scherf et al.
# Submitted via: CDex 1.51
#
DISCID=51089106
DTITLE=Railroad Blues Band - One
DYEAR=2004
DGENRE=Blues
TTITLE0=Mannish Boy (arr.)
TTITLE1=The Sky Is Crying (arr.)
TTITLE2=Blues Di Mezzanotte (arr.)
TTITLE3=Mannish Boy
TTITLE4=The Sky Is Crying
TTITLE5=Blues Di Mezzanotte
EXTD=YEAR: 2004
EXTT0=
EXTT1=
EXTT2=
EXTT3=
EXTT4=
EXTT5=
PLAYORDER=
